<?xml version="1.0" encoding="UTF-8"?>
<svg width="600" height="360" viewBox="0 0 600 360" xmlns="http://www.w3.org/2000/svg" role="img" aria-label="GitHub language stats">
  <style>
    @import url('https://fonts.googleapis.com/css2?family=Manrope:wght@400;600&amp;display=swap');
    text { font-family: 'Manrope', 'Segoe UI', sans-serif; }
  </style>
  <defs>
    <linearGradient id="bg" x1="0" y1="0" x2="1" y2="1">
      <stop offset="0%" stop-color="#FFF7F2" />
      <stop offset="100%" stop-color="#FDEDE4" />
    </linearGradient>
  </defs>
  <rect x="0" y="0" width="100%" height="100%" fill="url(#bg)" rx="16" />
  <rect x="10" y="10" width="580" height="340" fill="none" stroke="#E7C9B8" stroke-width="1" rx="12" />

  <text x="24" y="34" font-size="16" fill="#2B1B12" font-weight="600">Top Languages</text>
  <text x="576" y="34" font-size="11" fill="#6B4C3B" text-anchor="end">182 repos • 6 slices</text>
  

  <path d="M 185 85 A 110 110 0 0 1 244.3791014952666 287.5965566617616 L 214.6895507476333 241.2982783308808 A 55 55 0 0 0 185 140 Z" fill="#2F4B7C" stroke="#FDEDE4" stroke-width="1" /><path d="M 244.3791014952666 287.5965566617616 A 110 110 0 0 1 77.26858694299148 217.22482037588185 L 131.13429347149574 206.11241018794092 A 55 55 0 0 0 214.6895507476333 241.2982783308808 Z" fill="#665191" stroke="#FDEDE4" stroke-width="1" /><path d="M 77.26858694299148 217.22482037588185 A 110 110 0 0 1 77.05117700922523 173.85640487271908 L 131.0255885046126 184.42820243635956 A 55 55 0 0 0 131.13429347149574 206.11241018794092 Z" fill="#A05195" stroke="#FDEDE4" stroke-width="1" /><path d="M 77.05117700922523 173.85640487271908 A 110 110 0 0 1 92.35038179957941 135.703724844504 L 138.6751908997897 165.351862422252 A 55 55 0 0 0 131.0255885046126 184.42820243635956 Z" fill="#D45087" stroke="#FDEDE4" stroke-width="1" /><path d="M 92.35038179957941 135.703724844504 A 110 110 0 0 1 116.4552372843952 108.96735791421123 L 150.7276186421976 151.9836789571056 A 55 55 0 0 0 138.6751908997897 165.351862422252 Z" fill="#F95D6A" stroke="#FDEDE4" stroke-width="1" /><path d="M 116.4552372843952 108.96735791421123 A 110 110 0 0 1 184.99999999999997 85 L 185 140 A 55 55 0 0 0 150.7276186421976 151.9836789571056 Z" fill="#FF7C43" stroke="#FDEDE4" stroke-width="1" />
  <circle cx="185" cy="195" r="49" fill="#FFF7F2" />
  <text x="185" y="191" font-size="14" fill="#2B1B12" text-anchor="middle" font-weight="600">
    TypeScript
  </text>
  <text x="185" y="209" font-size="11" fill="#8A6A5A" text-anchor="middle">
    40.9%
  </text>

  <text x="360" y="64" font-size="11" fill="#8A6A5A" letter-spacing="1">DISTRIBUTION</text>
  
    <circle cx="360" cy="85" r="5" fill="#2F4B7C" />
    <text x="374" y="90" font-size="12" fill="#2B1B12">TypeScript</text>
    <text x="576" y="90" font-size="12" fill="#6B4C3B" text-anchor="end">40.9%</text>
    <circle cx="360" cy="109" r="5" fill="#665191" />
    <text x="374" y="114" font-size="12" fill="#2B1B12">JavaScript</text>
    <text x="576" y="114" font-size="12" fill="#6B4C3B" text-anchor="end">30.8%</text>
    <circle cx="360" cy="133" r="5" fill="#A05195" />
    <text x="374" y="138" font-size="12" fill="#2B1B12">Go</text>
    <text x="576" y="138" font-size="12" fill="#6B4C3B" text-anchor="end">6.3%</text>
    <circle cx="360" cy="157" r="5" fill="#D45087" />
    <text x="374" y="162" font-size="12" fill="#2B1B12">Dart</text>
    <text x="576" y="162" font-size="12" fill="#6B4C3B" text-anchor="end">6.0%</text>
    <circle cx="360" cy="181" r="5" fill="#F95D6A" />
    <text x="374" y="186" font-size="12" fill="#2B1B12">Python</text>
    <text x="576" y="186" font-size="12" fill="#6B4C3B" text-anchor="end">5.2%</text>
    <circle cx="360" cy="205" r="5" fill="#FF7C43" />
    <text x="374" y="210" font-size="12" fill="#2B1B12">Other</text>
    <text x="576" y="210" font-size="12" fill="#6B4C3B" text-anchor="end">10.7%</text>

  <text x="24" y="344" font-size="10" fill="#8A6A5A">Generated 2026-03-01</text>
</svg>