<?xml version="1.0" encoding="UTF-8"?>
<svg width="600" height="360" viewBox="0 0 600 360" xmlns="http://www.w3.org/2000/svg" role="img" aria-label="GitHub language stats">
  <style>
    @import url('https://fonts.googleapis.com/css2?family=Manrope:wght@400;600&amp;display=swap');
    text { font-family: 'Manrope', 'Segoe UI', sans-serif; }
  </style>
  <defs>
    <linearGradient id="bg" x1="0" y1="0" x2="1" y2="1">
      <stop offset="0%" stop-color="#FFF7F2" />
      <stop offset="100%" stop-color="#FDEDE4" />
    </linearGradient>
  </defs>
  <rect x="0" y="0" width="100%" height="100%" fill="url(#bg)" rx="16" />
  <rect x="10" y="10" width="580" height="340" fill="none" stroke="#E7C9B8" stroke-width="1" rx="12" />

  <text x="24" y="34" font-size="16" fill="#2B1B12" font-weight="600">Top Languages</text>
  <text x="576" y="34" font-size="11" fill="#6B4C3B" text-anchor="end">10 repos • 6 slices</text>
  <text x="24" y="54" font-size="11" fill="#8A6A5A">Past 7 days</text>

  <path d="M 185 85 A 110 110 0 1 1 88.08809045382854 247.03923316224675 L 136.54404522691428 221.01961658112336 A 55 55 0 1 0 185 140 Z" fill="#2F4B7C" stroke="#FDEDE4" stroke-width="1" /><path d="M 88.08809045382854 247.03923316224675 A 110 110 0 0 1 168.10080936512693 86.30585408640344 L 176.55040468256345 140.65292704320171 A 55 55 0 0 0 136.54404522691428 221.01961658112336 Z" fill="#665191" stroke="#FDEDE4" stroke-width="1" /><path d="M 168.10080936512693 86.30585408640344 A 110 110 0 0 1 181.08079913214496 85.06984096910709 L 183.0403995660725 140.03492048455354 A 55 55 0 0 0 176.55040468256345 140.65292704320171 Z" fill="#A05195" stroke="#FDEDE4" stroke-width="1" /><path d="M 181.08079913214496 85.06984096910709 A 110 110 0 0 1 182.7951304932082 85.02209971790687 L 183.8975652466041 140.01104985895344 A 55 55 0 0 0 183.0403995660725 140.03492048455354 Z" fill="#D45087" stroke="#FDEDE4" stroke-width="1" /><path d="M 182.7951304932082 85.02209971790687 A 110 110 0 0 1 184.32624896449408 85.00206338507002 L 184.66312448224704 140.001031692535 A 55 55 0 0 0 183.8975652466041 140.01104985895344 Z" fill="#F95D6A" stroke="#FDEDE4" stroke-width="1" /><path d="M 184.32624896449408 85.00206338507002 A 110 110 0 0 1 184.99999999999997 85 L 185 140 A 55 55 0 0 0 184.66312448224704 140.001031692535 Z" fill="#FF7C43" stroke="#FDEDE4" stroke-width="1" />
  <circle cx="185" cy="195" r="49" fill="#FFF7F2" />
  <text x="185" y="191" font-size="14" fill="#2B1B12" text-anchor="middle" font-weight="600">
    TypeScript
  </text>
  <text x="185" y="209" font-size="11" fill="#8A6A5A" text-anchor="middle">
    67.2%
  </text>

  <text x="360" y="64" font-size="11" fill="#8A6A5A" letter-spacing="1">DISTRIBUTION</text>
  
    <circle cx="360" cy="85" r="5" fill="#2F4B7C" />
    <text x="374" y="90" font-size="12" fill="#2B1B12">TypeScript</text>
    <text x="576" y="90" font-size="12" fill="#6B4C3B" text-anchor="end">67.2%</text>
    <circle cx="360" cy="109" r="5" fill="#665191" />
    <text x="374" y="114" font-size="12" fill="#2B1B12">Go</text>
    <text x="576" y="114" font-size="12" fill="#6B4C3B" text-anchor="end">30.4%</text>
    <circle cx="360" cy="133" r="5" fill="#A05195" />
    <text x="374" y="138" font-size="12" fill="#2B1B12">Python</text>
    <text x="576" y="138" font-size="12" fill="#6B4C3B" text-anchor="end">1.9%</text>
    <circle cx="360" cy="157" r="5" fill="#D45087" />
    <text x="374" y="162" font-size="12" fill="#2B1B12">Shell</text>
    <text x="576" y="162" font-size="12" fill="#6B4C3B" text-anchor="end">0.2%</text>
    <circle cx="360" cy="181" r="5" fill="#F95D6A" />
    <text x="374" y="186" font-size="12" fill="#2B1B12">CSS</text>
    <text x="576" y="186" font-size="12" fill="#6B4C3B" text-anchor="end">0.2%</text>
    <circle cx="360" cy="205" r="5" fill="#FF7C43" />
    <text x="374" y="210" font-size="12" fill="#2B1B12">Other</text>
    <text x="576" y="210" font-size="12" fill="#6B4C3B" text-anchor="end">0.1%</text>

  <text x="24" y="344" font-size="10" fill="#8A6A5A">Generated 2026-02-18</text>
</svg>