<?xml version="1.0" encoding="UTF-8"?>
<svg width="600" height="360" viewBox="0 0 600 360" xmlns="http://www.w3.org/2000/svg" role="img" aria-label="GitHub language stats">
  <style>
    @import url('https://fonts.googleapis.com/css2?family=Manrope:wght@400;600&amp;display=swap');
    text { font-family: 'Manrope', 'Segoe UI', sans-serif; }
  </style>
  <defs>
    <linearGradient id="bg" x1="0" y1="0" x2="1" y2="1">
      <stop offset="0%" stop-color="#FFF7F2" />
      <stop offset="100%" stop-color="#FDEDE4" />
    </linearGradient>
  </defs>
  <rect x="0" y="0" width="100%" height="100%" fill="url(#bg)" rx="16" />
  <rect x="10" y="10" width="580" height="340" fill="none" stroke="#E7C9B8" stroke-width="1" rx="12" />

  <text x="24" y="34" font-size="16" fill="#2B1B12" font-weight="600">Top Languages</text>
  <text x="576" y="34" font-size="11" fill="#6B4C3B" text-anchor="end">185 repos • 6 slices</text>
  

  <path d="M 185 85 A 110 110 0 0 1 241.39458548085872 289.44390254771406 L 213.19729274042936 242.22195127385703 A 55 55 0 0 0 185 140 Z" fill="#2F4B7C" stroke="#FDEDE4" stroke-width="1" /><path d="M 241.39458548085872 289.44390254771406 A 110 110 0 0 1 77.89372647895549 220.06483936583672 L 131.44686323947775 207.53241968291837 A 55 55 0 0 0 213.19729274042936 242.22195127385703 Z" fill="#665191" stroke="#FDEDE4" stroke-width="1" /><path d="M 77.89372647895549 220.06483936583672 A 110 110 0 0 1 76.31924040565994 178.01493320598172 L 130.65962020282996 186.50746660299086 A 55 55 0 0 0 131.44686323947775 207.53241968291837 Z" fill="#A05195" stroke="#FDEDE4" stroke-width="1" /><path d="M 76.31924040565994 178.01493320598172 A 110 110 0 0 1 89.51853342889883 140.38050218620012 L 137.2592667144494 167.69025109310004 A 55 55 0 0 0 130.65962020282996 186.50746660299086 Z" fill="#D45087" stroke="#FDEDE4" stroke-width="1" /><path d="M 89.51853342889883 140.38050218620012 A 110 110 0 0 1 111.45181465258953 113.2035182168392 L 148.22590732629476 154.1017591084196 A 55 55 0 0 0 137.2592667144494 167.69025109310004 Z" fill="#F95D6A" stroke="#FDEDE4" stroke-width="1" /><path d="M 111.45181465258953 113.2035182168392 A 110 110 0 0 1 184.99999999999997 85 L 185 140 A 55 55 0 0 0 148.22590732629476 154.1017591084196 Z" fill="#FF7C43" stroke="#FDEDE4" stroke-width="1" />
  <circle cx="185" cy="195" r="49" fill="#FFF7F2" />
  <text x="185" y="191" font-size="14" fill="#2B1B12" text-anchor="middle" font-weight="600">
    TypeScript
  </text>
  <text x="185" y="209" font-size="11" fill="#8A6A5A" text-anchor="middle">
    41.4%
  </text>

  <text x="360" y="64" font-size="11" fill="#8A6A5A" letter-spacing="1">DISTRIBUTION</text>
  
    <circle cx="360" cy="85" r="5" fill="#2F4B7C" />
    <text x="374" y="90" font-size="12" fill="#2B1B12">TypeScript</text>
    <text x="576" y="90" font-size="12" fill="#6B4C3B" text-anchor="end">41.4%</text>
    <circle cx="360" cy="109" r="5" fill="#665191" />
    <text x="374" y="114" font-size="12" fill="#2B1B12">JavaScript</text>
    <text x="576" y="114" font-size="12" fill="#6B4C3B" text-anchor="end">29.9%</text>
    <circle cx="360" cy="133" r="5" fill="#A05195" />
    <text x="374" y="138" font-size="12" fill="#2B1B12">Go</text>
    <text x="576" y="138" font-size="12" fill="#6B4C3B" text-anchor="end">6.1%</text>
    <circle cx="360" cy="157" r="5" fill="#D45087" />
    <text x="374" y="162" font-size="12" fill="#2B1B12">Dart</text>
    <text x="576" y="162" font-size="12" fill="#6B4C3B" text-anchor="end">5.8%</text>
    <circle cx="360" cy="181" r="5" fill="#F95D6A" />
    <text x="374" y="186" font-size="12" fill="#2B1B12">Python</text>
    <text x="576" y="186" font-size="12" fill="#6B4C3B" text-anchor="end">5.1%</text>
    <circle cx="360" cy="205" r="5" fill="#FF7C43" />
    <text x="374" y="210" font-size="12" fill="#2B1B12">Other</text>
    <text x="576" y="210" font-size="12" fill="#6B4C3B" text-anchor="end">11.7%</text>

  <text x="24" y="344" font-size="10" fill="#8A6A5A">Generated 2026-03-08</text>
</svg>