<?xml version="1.0" encoding="UTF-8"?>
<svg width="600" height="360" viewBox="0 0 600 360" xmlns="http://www.w3.org/2000/svg" role="img" aria-label="GitHub language stats">
  <style>
    @import url('https://fonts.googleapis.com/css2?family=Manrope:wght@400;600&amp;display=swap');
    text { font-family: 'Manrope', 'Segoe UI', sans-serif; }
  </style>
  <defs>
    <linearGradient id="bg" x1="0" y1="0" x2="1" y2="1">
      <stop offset="0%" stop-color="#FFF7F2" />
      <stop offset="100%" stop-color="#FDEDE4" />
    </linearGradient>
  </defs>
  <rect x="0" y="0" width="100%" height="100%" fill="url(#bg)" rx="16" />
  <rect x="10" y="10" width="580" height="340" fill="none" stroke="#E7C9B8" stroke-width="1" rx="12" />

  <text x="24" y="34" font-size="16" fill="#2B1B12" font-weight="600">Top Languages</text>
  <text x="576" y="34" font-size="11" fill="#6B4C3B" text-anchor="end">175 repos • 6 slices</text>

  <path d="M 185 85 A 110 110 0 0 1 238.19146257419098 291.28430977692284 L 211.59573128709548 243.14215488846142 A 55 55 0 0 0 185 140 Z" fill="#2F4B7C" stroke="#FDEDE4" stroke-width="1" /><path d="M 238.19146257419098 291.28430977692284 A 110 110 0 0 1 75.76054997699394 182.08711656247283 L 130.38027498849698 188.54355828123641 A 55 55 0 0 0 211.59573128709548 243.14215488846142 Z" fill="#665191" stroke="#FDEDE4" stroke-width="1" /><path d="M 75.76054997699394 182.08711656247283 A 110 110 0 0 1 90.99593959365986 137.87525381131962 L 137.99796979682992 166.4376269056598 A 55 55 0 0 0 130.38027498849698 188.54355828123641 Z" fill="#A05195" stroke="#FDEDE4" stroke-width="1" /><path d="M 90.99593959365986 137.87525381131962 A 110 110 0 0 1 110.98249192680751 113.62796242790228 L 147.99124596340374 154.31398121395114 A 55 55 0 0 0 137.99796979682992 166.4376269056598 Z" fill="#D45087" stroke="#FDEDE4" stroke-width="1" /><path d="M 110.98249192680751 113.62796242790228 A 110 110 0 0 1 130.75941035358238 99.30277728790175 L 157.8797051767912 147.15138864395087 A 55 55 0 0 0 147.99124596340374 154.31398121395114 Z" fill="#F95D6A" stroke="#FDEDE4" stroke-width="1" /><path d="M 130.75941035358238 99.30277728790175 A 110 110 0 0 1 184.99999999999997 85 L 185 140 A 55 55 0 0 0 157.8797051767912 147.15138864395087 Z" fill="#FF7C43" stroke="#FDEDE4" stroke-width="1" />
  <circle cx="185" cy="195" r="49" fill="#FFF7F2" />
  <text x="185" y="191" font-size="14" fill="#2B1B12" text-anchor="middle" font-weight="600">
    TypeScript
  </text>
  <text x="185" y="209" font-size="11" fill="#8A6A5A" text-anchor="middle">
    42.0%
  </text>

  <text x="360" y="64" font-size="11" fill="#8A6A5A" letter-spacing="1">DISTRIBUTION</text>
  
    <circle cx="360" cy="85" r="5" fill="#2F4B7C" />
    <text x="374" y="90" font-size="12" fill="#2B1B12">TypeScript</text>
    <text x="576" y="90" font-size="12" fill="#6B4C3B" text-anchor="end">42.0%</text>
    <circle cx="360" cy="109" r="5" fill="#665191" />
    <text x="374" y="114" font-size="12" fill="#2B1B12">JavaScript</text>
    <text x="576" y="114" font-size="12" fill="#6B4C3B" text-anchor="end">34.9%</text>
    <circle cx="360" cy="133" r="5" fill="#A05195" />
    <text x="374" y="138" font-size="12" fill="#2B1B12">Dart</text>
    <text x="576" y="138" font-size="12" fill="#6B4C3B" text-anchor="end">6.8%</text>
    <circle cx="360" cy="157" r="5" fill="#D45087" />
    <text x="374" y="162" font-size="12" fill="#2B1B12">Python</text>
    <text x="576" y="162" font-size="12" fill="#6B4C3B" text-anchor="end">4.6%</text>
    <circle cx="360" cy="181" r="5" fill="#F95D6A" />
    <text x="374" y="186" font-size="12" fill="#2B1B12">CSS</text>
    <text x="576" y="186" font-size="12" fill="#6B4C3B" text-anchor="end">3.5%</text>
    <circle cx="360" cy="205" r="5" fill="#FF7C43" />
    <text x="374" y="210" font-size="12" fill="#2B1B12">Other</text>
    <text x="576" y="210" font-size="12" fill="#6B4C3B" text-anchor="end">8.2%</text>

  <text x="24" y="344" font-size="10" fill="#8A6A5A">Generated 2026-02-01</text>
</svg>