<?xml version="1.0" encoding="UTF-8"?>
<svg width="600" height="360" viewBox="0 0 600 360" xmlns="http://www.w3.org/2000/svg" role="img" aria-label="GitHub language stats">
  <style>
    @import url('https://fonts.googleapis.com/css2?family=Manrope:wght@400;600&amp;display=swap');
    text { font-family: 'Manrope', 'Segoe UI', sans-serif; }
  </style>
  <defs>
    <linearGradient id="bg" x1="0" y1="0" x2="1" y2="1">
      <stop offset="0%" stop-color="#FFF7F2" />
      <stop offset="100%" stop-color="#FDEDE4" />
    </linearGradient>
  </defs>
  <rect x="0" y="0" width="100%" height="100%" fill="url(#bg)" rx="16" />
  <rect x="10" y="10" width="580" height="340" fill="none" stroke="#E7C9B8" stroke-width="1" rx="12" />

  <text x="24" y="34" font-size="16" fill="#2B1B12" font-weight="600">Top Languages</text>
  <text x="576" y="34" font-size="11" fill="#6B4C3B" text-anchor="end">26 repos • 6 slices</text>
  

  <path d="M 185 85 A 110 110 0 1 1 175.8661178697681 304.6201267889753 L 180.43305893488406 249.81006339448766 A 55 55 0 1 0 185 140 Z" fill="#2F4B7C" stroke="#FDEDE4" stroke-width="1" /><path d="M 175.8661178697681 304.6201267889753 A 110 110 0 0 1 81.75155195969607 157.05585714146835 L 133.37577597984804 176.02792857073416 A 55 55 0 0 0 180.43305893488406 249.81006339448766 Z" fill="#665191" stroke="#FDEDE4" stroke-width="1" /><path d="M 81.75155195969607 157.05585714146835 A 110 110 0 0 1 101.6912262679903 123.16930865382952 L 143.34561313399516 159.08465432691474 A 55 55 0 0 0 133.37577597984804 176.02792857073416 Z" fill="#A05195" stroke="#FDEDE4" stroke-width="1" /><path d="M 101.6912262679903 123.16930865382952 A 110 110 0 0 1 124.1676802905126 103.35160187563172 L 154.58384014525632 149.17580093781586 A 55 55 0 0 0 143.34561313399516 159.08465432691474 Z" fill="#D45087" stroke="#FDEDE4" stroke-width="1" /><path d="M 124.1676802905126 103.35160187563172 A 110 110 0 0 1 149.08352107802983 91.02881869552664 L 167.04176053901492 143.01440934776332 A 55 55 0 0 0 154.58384014525632 149.17580093781586 Z" fill="#F95D6A" stroke="#FDEDE4" stroke-width="1" /><path d="M 149.08352107802983 91.02881869552664 A 110 110 0 0 1 184.99999999999997 85 L 185 140 A 55 55 0 0 0 167.04176053901492 143.01440934776332 Z" fill="#FF7C43" stroke="#FDEDE4" stroke-width="1" />
  <circle cx="185" cy="195" r="49" fill="#FFF7F2" />
  <text x="185" y="191" font-size="14" fill="#2B1B12" text-anchor="middle" font-weight="600">
    TypeScript
  </text>
  <text x="185" y="209" font-size="11" fill="#8A6A5A" text-anchor="middle">
    51.3%
  </text>

  <text x="360" y="64" font-size="11" fill="#8A6A5A" letter-spacing="1">DISTRIBUTION</text>
  
    <circle cx="360" cy="85" r="5" fill="#2F4B7C" />
    <text x="374" y="90" font-size="12" fill="#2B1B12">TypeScript</text>
    <text x="576" y="90" font-size="12" fill="#6B4C3B" text-anchor="end">51.3%</text>
    <circle cx="360" cy="109" r="5" fill="#665191" />
    <text x="374" y="114" font-size="12" fill="#2B1B12">Go</text>
    <text x="576" y="114" font-size="12" fill="#6B4C3B" text-anchor="end">29.3%</text>
    <circle cx="360" cy="133" r="5" fill="#A05195" />
    <text x="374" y="138" font-size="12" fill="#2B1B12">Swift</text>
    <text x="576" y="138" font-size="12" fill="#6B4C3B" text-anchor="end">5.7%</text>
    <circle cx="360" cy="157" r="5" fill="#D45087" />
    <text x="374" y="162" font-size="12" fill="#2B1B12">Python</text>
    <text x="576" y="162" font-size="12" fill="#6B4C3B" text-anchor="end">4.3%</text>
    <circle cx="360" cy="181" r="5" fill="#F95D6A" />
    <text x="374" y="186" font-size="12" fill="#2B1B12">CSS</text>
    <text x="576" y="186" font-size="12" fill="#6B4C3B" text-anchor="end">4.0%</text>
    <circle cx="360" cy="205" r="5" fill="#FF7C43" />
    <text x="374" y="210" font-size="12" fill="#2B1B12">Other</text>
    <text x="576" y="210" font-size="12" fill="#6B4C3B" text-anchor="end">5.3%</text>

  <text x="24" y="344" font-size="10" fill="#8A6A5A">Generated 2026-03-16</text>
</svg>