<?xml version="1.0" encoding="UTF-8"?>
<svg width="600" height="360" viewBox="0 0 600 360" xmlns="http://www.w3.org/2000/svg" role="img" aria-label="GitHub language stats">
  <style>
    @import url('https://fonts.googleapis.com/css2?family=Manrope:wght@400;600&amp;display=swap');
    text { font-family: 'Manrope', 'Segoe UI', sans-serif; }
  </style>
  <defs>
    <linearGradient id="bg" x1="0" y1="0" x2="1" y2="1">
      <stop offset="0%" stop-color="#FFF7F2" />
      <stop offset="100%" stop-color="#FDEDE4" />
    </linearGradient>
  </defs>
  <rect x="0" y="0" width="100%" height="100%" fill="url(#bg)" rx="16" />
  <rect x="10" y="10" width="580" height="340" fill="none" stroke="#E7C9B8" stroke-width="1" rx="12" />

  <text x="24" y="34" font-size="16" fill="#2B1B12" font-weight="600">Top Languages</text>
  <text x="576" y="34" font-size="11" fill="#6B4C3B" text-anchor="end">10 repos • 2 slices</text>
  <text x="24" y="54" font-size="11" fill="#8A6A5A">Past 7 days</text>

  <path d="M 185 85 A 110 110 0 1 1 172.21294179877302 85.74575000230685 L 178.6064708993865 140.37287500115343 A 55 55 0 1 0 185 140 Z" fill="#2F4B7C" stroke="#FDEDE4" stroke-width="1" /><path d="M 172.21294179877302 85.74575000230685 A 110 110 0 0 1 184.9999999999999 85 L 184.99999999999994 140 A 55 55 0 0 0 178.6064708993865 140.37287500115343 Z" fill="#665191" stroke="#FDEDE4" stroke-width="1" />
  <circle cx="185" cy="195" r="49" fill="#FFF7F2" />
  <text x="185" y="191" font-size="14" fill="#2B1B12" text-anchor="middle" font-weight="600">
    TypeScript
  </text>
  <text x="185" y="209" font-size="11" fill="#8A6A5A" text-anchor="middle">
    98.1%
  </text>

  <text x="360" y="64" font-size="11" fill="#8A6A5A" letter-spacing="1">DISTRIBUTION</text>
  
    <circle cx="360" cy="85" r="5" fill="#2F4B7C" />
    <text x="374" y="90" font-size="12" fill="#2B1B12">TypeScript</text>
    <text x="576" y="90" font-size="12" fill="#6B4C3B" text-anchor="end">98.1%</text>
    <circle cx="360" cy="109" r="5" fill="#665191" />
    <text x="374" y="114" font-size="12" fill="#2B1B12">Python</text>
    <text x="576" y="114" font-size="12" fill="#6B4C3B" text-anchor="end">1.9%</text>

  <text x="24" y="344" font-size="10" fill="#8A6A5A">Generated 2026-02-18</text>
</svg>